<svg width="168" height="40" viewBox="0 0 168 40" fill="none" xmlns="http://www.w3.org/2000/svg">
<g clip-path="url(#clip0_310_83)">
<path d="M17.6544 5.97952C17.372 5.31152 16.9026 4.38345 16.2122 3.38003C15.4538 2.27773 14.4199 1.07107 13.0581 0.0111176C13.7131 -0.017328 14.3404 0.0105532 14.9206 0.0748795C15.3489 0.494337 15.7292 0.95074 16.0612 1.4193C16.9858 2.72405 17.5074 4.08355 17.6446 4.9058C17.6511 4.94543 17.6656 4.98238 17.6864 5.01563C17.7072 4.98238 17.7216 4.94543 17.7283 4.9058C17.8654 4.08355 18.3871 2.72405 19.3116 1.4193C19.6437 0.95074 20.0239 0.494337 20.4522 0.0748795C21.0324 0.0105532 21.6597 -0.017328 22.3147 0.0111176C20.9529 1.07107 19.9189 2.27773 19.1606 3.38003C18.4703 4.38345 18.0007 5.31152 17.7183 5.97952V6.13373C17.708 6.1082 17.6974 6.08222 17.6864 6.05577C17.6754 6.08222 17.6647 6.1082 17.6544 6.13373V5.97952Z" fill="white" fill-opacity="0.8"/>
<path d="M17.6862 0.740468C17.2775 0.57065 16.7236 0.3951 16.0674 0.257568C16.2979 0.524878 16.5105 0.798808 16.7056 1.07409C17.0837 1.6078 17.4001 2.15255 17.6542 2.6733V2.80624C17.6649 2.78395 17.6754 2.7616 17.6862 2.7392C17.697 2.7616 17.7076 2.78395 17.7181 2.80624V2.6733C17.9724 2.15255 18.2886 1.6078 18.6667 1.07409C18.8618 0.798808 19.0746 0.524878 19.305 0.257568C18.6488 0.3951 18.095 0.57065 17.6862 0.740468Z" fill="white" fill-opacity="0.8"/>
<path d="M15.5623 3.71781C14.7332 2.51263 13.5728 1.1948 12.015 0.104126C11.6751 0.150441 11.3308 0.21348 10.9844 0.295738C12.1724 0.903296 13.1459 1.82063 13.9851 2.75893C14.4401 3.26768 14.8675 3.79693 15.2699 4.29516C15.4405 4.50643 15.6067 4.71226 15.7685 4.90843C16.1792 5.4064 16.5617 5.84261 16.9344 6.18436C16.6706 5.56485 16.2263 4.68296 15.5623 3.71781Z" fill="white" fill-opacity="0.8"/>
<path d="M13.3875 3.16289C12.4037 2.06292 11.3115 1.08939 9.98157 0.588623C9.54126 0.742376 9.10143 0.930733 8.66699 1.15875C9.85242 1.38238 10.8783 2.02097 11.7665 2.74479C12.4076 3.26721 13.0042 3.85837 13.5447 4.39392C13.7512 4.59851 13.9496 4.79509 14.1391 4.97651C14.4885 5.31114 14.8076 5.59517 15.1051 5.80587C15.1208 5.81702 15.1364 5.82791 15.1519 5.83854C15.3356 5.86599 15.5268 5.90772 15.7276 5.96411C15.5357 5.74999 15.3446 5.52389 15.1533 5.29192C14.9826 5.08496 14.8115 4.87301 14.6381 4.65829C14.2403 4.16574 13.8307 3.65851 13.3875 3.16289Z" fill="white" fill-opacity="0.8"/>
<path d="M17.6865 39.3614C17.6973 39.4002 17.708 39.439 17.7184 39.4779C17.7184 39.4037 17.7184 39.3275 17.7184 39.2495C17.8756 38.7083 18.0724 38.177 18.29 37.6544C18.5591 37.0077 18.8622 36.3699 19.1636 35.7427L19.2584 35.5457C19.5285 34.9842 19.7945 34.4315 20.0358 33.8797C21.0794 31.4942 21.625 29.2134 19.9528 26.7614C19.2739 26.9714 18.4693 27.0642 17.6865 27.071C16.9037 27.0642 16.0992 26.9714 15.4202 26.7614C13.748 29.2134 14.2936 31.4942 15.3372 33.8797C15.5786 34.4315 15.8445 34.9842 16.1147 35.5457L16.2095 35.7427C16.5109 36.3699 16.8139 37.0077 17.083 37.6544C17.3006 38.177 17.4974 38.7083 17.6546 39.2495C17.6546 39.3275 17.6546 39.4037 17.6546 39.4779C17.665 39.439 17.6757 39.4002 17.6865 39.3614Z" fill="white" fill-opacity="0.8"/>
<path d="M14.7238 26.4922C12.928 29.1812 13.5683 31.688 14.6294 34.1137C14.8755 34.6762 15.1464 35.2392 15.4158 35.7992L15.5107 35.9964C15.8121 36.6237 16.1087 37.2482 16.371 37.8784C16.664 38.5822 16.9117 39.2872 17.0733 40C16.6202 39.2307 16.1144 38.5674 15.5681 37.981C15.3535 37.5617 15.1092 37.1385 14.852 36.7144C14.5944 36.2897 14.3239 35.8639 14.0519 35.436C13.4855 34.5447 12.9132 33.6442 12.4406 32.7252C11.7449 31.3725 11.3013 30.0422 11.4399 28.7589C11.5615 27.6319 12.1363 26.5067 13.468 25.4119C13.7177 25.8644 14.1623 26.224 14.7238 26.4922Z" fill="white" fill-opacity="0.8"/>
<path d="M10.6864 28.6974C10.8368 27.3039 11.5925 25.9545 13.2518 24.6939C13.2442 24.6012 13.2434 24.5055 13.2498 24.4074C13.3029 24.3479 13.4229 24.2752 13.6921 24.2007C13.9597 24.1265 14.2826 24.074 14.6559 24.0134C14.7789 23.9934 14.9074 23.9725 15.0412 23.9497C15.5594 23.8612 16.1342 23.7459 16.6463 23.5354C17.0382 23.3742 17.4057 23.1525 17.6866 22.8362C17.9675 23.1525 18.335 23.3742 18.7269 23.5354C19.239 23.7459 19.8139 23.8612 20.332 23.9497C20.4659 23.9725 20.5943 23.9934 20.7173 24.0134C21.0907 24.074 21.4135 24.1265 21.6812 24.2007C21.9503 24.2752 22.0704 24.3479 22.1235 24.4074C22.1298 24.5055 22.1291 24.6012 22.1215 24.6939C23.7808 25.9545 24.5364 27.3039 24.6869 28.6974C24.8434 30.1479 24.3391 31.6025 23.6235 32.9937C23.138 33.9379 22.5383 34.8817 21.9636 35.7865C21.8299 35.9969 21.6971 36.2059 21.5679 36.4115C22.6378 35.6094 23.7935 34.949 24.9713 34.276L25.114 34.1945C26.3162 31.4919 26.4156 29.3605 25.9748 27.6604C25.4502 25.6364 24.1483 24.176 22.9054 23.0559C22.9026 23.0587 22.8999 23.0615 22.8973 23.0644C22.8914 23.0704 22.8858 23.0764 22.8801 23.082C22.7792 23.1855 22.6874 23.2689 22.6122 23.3304C22.5707 23.3642 22.5288 23.3957 22.4901 23.422C22.4628 23.44 22.4355 23.4572 22.4052 23.4739C22.3427 23.5094 22.27 23.5379 22.1963 23.5564C22.1303 23.573 22.0603 23.586 21.9857 23.5952C21.9606 23.5877 21.9357 23.5805 21.9111 23.5737C21.5944 23.4859 21.205 23.4227 20.8192 23.3602C20.7046 23.3415 20.59 23.323 20.4781 23.3039C19.9676 23.2167 19.4719 23.1135 19.0504 22.9404C18.6449 22.7737 18.329 22.5507 18.1359 22.2304L18.3739 20.8629C18.4481 20.4375 18.6986 20.0497 19.0971 19.7949C19.1372 19.7692 19.1775 19.7437 19.2177 19.718L19.2244 19.7137C19.7706 19.3657 20.3388 19.0037 20.8986 18.4365C21.1584 18.1734 21.2776 17.8304 21.2776 17.4835C20.8673 17.8259 20.3207 18.017 19.752 18.017H15.6212C15.0526 18.017 14.5059 17.8259 14.0956 17.4835C14.0956 17.8304 14.2149 18.1734 14.4747 18.4365C15.0345 19.0037 15.6026 19.3657 16.1488 19.7137L16.1508 19.7149C16.1927 19.7417 16.2345 19.7682 16.2761 19.7949C16.6746 20.0497 16.9251 20.4375 16.9993 20.8629L17.2375 22.2304C17.0442 22.5507 16.7283 22.7737 16.3228 22.9404C15.9014 23.1135 15.4057 23.2167 14.8953 23.3039C14.7833 23.323 14.669 23.3415 14.5543 23.36C14.1686 23.4227 13.7788 23.4859 13.4623 23.5737C13.4376 23.5805 13.4126 23.5877 13.3875 23.5952C13.3129 23.586 13.243 23.573 13.1769 23.5564C13.1032 23.5379 13.0306 23.5094 12.968 23.4739C12.9377 23.4572 12.9105 23.44 12.8832 23.422C12.8443 23.3957 12.8024 23.3642 12.7611 23.3304C12.6859 23.2689 12.594 23.1855 12.4931 23.082C12.4849 23.0735 12.4765 23.0649 12.4679 23.0559C11.2249 24.176 9.92309 25.6364 9.39838 27.6604C8.95764 29.3605 9.05711 31.4919 10.2592 34.1945L10.4019 34.276C11.5798 34.949 12.7355 35.6094 13.8054 36.4115C13.6762 36.2059 13.5438 35.9977 13.4102 35.7872C12.8354 34.8825 12.2353 33.9379 11.7497 32.9937C11.0342 31.6025 10.5299 30.1479 10.6864 28.6974Z" fill="white" fill-opacity="0.8"/>
<path d="M12.02 22.5116C10.7078 23.6793 9.24206 25.2683 8.65943 27.5156C8.22898 29.176 8.28705 31.1688 9.20314 33.584C8.27311 33.0355 7.34253 32.4471 6.44191 31.7441C6.18339 31.0415 6.05909 30.3861 6.03795 29.7735C5.98469 28.2286 6.58556 26.9121 7.43308 25.7443C8.10217 24.8223 8.90945 24.0116 9.66487 23.2528C9.87452 23.0423 10.0805 22.8353 10.2782 22.6315C10.6949 22.2016 11.0779 21.7813 11.3685 21.3691L11.4131 21.37C11.5282 21.6771 11.672 21.9698 11.8416 22.2435C11.9011 22.3393 11.961 22.4288 12.02 22.5116Z" fill="white" fill-opacity="0.8"/>
<path d="M10.7796 20.9435C10.9586 20.6775 11.0776 20.4351 11.1354 20.2103C11.1003 19.8881 11.0988 19.563 11.1312 19.2368C11.1585 18.9643 11.2004 18.6138 11.2256 18.408L11.005 18.2413C10.9523 18.2013 10.9005 18.1613 10.8497 18.121C10.8308 18.1796 10.8094 18.2396 10.7856 18.301C10.6467 18.6585 10.4169 19.0831 10.0736 19.5665C9.38698 20.5333 8.23606 21.7503 6.41181 23.1561C4.22605 24.8406 3.50345 26.5183 3.52948 28.0056C3.53506 28.3241 3.57501 28.6363 3.64366 28.9406C4.20546 29.6728 4.79857 30.3081 5.41236 30.8726C5.33603 30.503 5.29358 30.1433 5.28151 29.7931C5.22234 28.0773 5.89396 26.632 6.79309 25.3931C7.49593 24.4246 8.35315 23.5641 9.11292 22.8015C9.31713 22.5965 9.51431 22.3985 9.69954 22.2075C10.1433 21.7498 10.517 21.334 10.7796 20.9435Z" fill="white" fill-opacity="0.8"/>
<path d="M10.1997 17.552C10.1959 17.6709 10.1619 17.8494 10.0682 18.0905C9.95134 18.3914 9.749 18.7705 9.42932 19.2207C8.79011 20.1209 7.69215 21.2899 5.90952 22.6637C3.7271 24.3457 2.84996 26.0827 2.77672 27.7042C2.50674 27.285 2.25912 26.8647 2.03271 26.444C2.04398 26.1684 2.0753 25.8942 2.12754 25.622C2.44199 23.9842 3.52281 22.376 5.65877 20.9172C7.48614 19.669 8.52658 18.4999 9.1294 17.6109C9.31931 17.3309 9.46502 17.0799 9.57783 16.8644C9.75977 17.0949 9.96617 17.3245 10.1997 17.552Z" fill="white" fill-opacity="0.8"/>
<path d="M9.04063 16.2814C9.06059 16.2376 9.07862 16.1967 9.09505 16.1587C8.87842 15.7881 8.71787 15.4191 8.60235 15.0579C8.36069 15.3646 8.03805 15.7291 7.62557 16.1402C6.78401 16.9789 5.55381 18.0262 3.83552 19.1942C1.87475 20.527 1.08375 22.2577 0.849121 23.7185C1.01819 24.2227 1.21466 24.7297 1.44052 25.2375C1.85575 23.5109 3.04792 21.8635 5.19107 20.3997C6.945 19.2017 7.92268 18.0945 8.47728 17.2767C8.75481 16.8675 8.9283 16.5279 9.04063 16.2814Z" fill="white" fill-opacity="0.8"/>
<path d="M8.38874 14.0799C8.24953 14.3533 7.84384 14.9214 7.0551 15.7075C6.2478 16.5121 5.05319 17.531 3.36923 18.6756C1.79076 19.7486 0.904414 21.055 0.444056 22.3085C0.168323 21.1601 0.0285287 20.0348 0 18.954C0.416951 18.0261 1.61164 16.596 4.21083 15.5358C5.9133 14.8413 7.16023 14.0187 8.01406 13.2852C8.13928 13.1776 8.25662 13.0714 8.3661 12.9674C8.33905 13.3147 8.34107 13.6886 8.38874 14.0799Z" fill="white" fill-opacity="0.8"/>
<path d="M7.48199 12.8171C8.10081 12.2855 8.47236 11.8261 8.64991 11.5366C8.72644 11.2958 8.81709 11.0559 8.92147 10.8178C8.71965 10.7418 8.52699 10.6604 8.34327 10.5741C7.6609 11.0784 6.41958 11.8546 3.87039 12.7362C2.4614 13.2235 1.59735 13.9578 1.09845 14.7679C0.654045 15.4894 0.489079 16.2883 0.509481 17.0557C1.27021 16.315 2.36819 15.5605 3.88929 14.94C5.51222 14.278 6.68825 13.499 7.48199 12.8171Z" fill="white" fill-opacity="0.8"/>
<path d="M9.21842 10.2123C6.91697 9.344 6.0029 7.72222 5.97948 6.2776C5.95463 4.7431 6.9038 3.52666 8.15367 3.38863C8.71272 3.3269 9.27847 3.57276 10.1041 4.18206C10.4947 4.47038 10.9217 4.82263 11.4175 5.23163L11.4741 5.27836C11.8821 5.6149 12.3327 5.98566 12.837 6.3804C12.6188 6.52276 12.4063 6.68338 12.1931 6.85248C11.6786 6.11418 10.3008 5.3609 7.59722 5.51655C7.38863 5.52856 7.23073 5.6853 7.24454 5.86665C7.25836 6.04798 7.43865 6.18525 7.64726 6.17323C10.4515 6.0118 11.3928 6.8783 11.6186 7.32218C11.5841 7.35163 11.5499 7.3812 11.5159 7.41086C10.9017 7.2523 10.1543 7.21996 9.44986 7.25488C8.65915 7.29406 7.87494 7.42056 7.31501 7.58281C7.11669 7.64028 7.0095 7.82665 7.07562 7.99905C7.14172 8.17146 7.3561 8.26465 7.55442 8.20717C8.03964 8.06657 8.75614 7.94845 9.49296 7.91193C10.0016 7.88671 10.4978 7.90156 10.9221 7.96583C10.2167 8.67203 9.64339 9.42948 9.21842 10.2123Z" fill="white" fill-opacity="0.8"/>
<path d="M11.995 4.80092C12.4478 5.17444 12.9461 5.58424 13.5093 6.02046C13.5896 5.98766 13.6713 5.95809 13.7546 5.93212C13.8531 5.90151 13.9522 5.87609 14.0525 5.85592C13.8957 5.71812 13.7377 5.57107 13.5787 5.41881C13.3721 5.22097 13.1634 5.01416 12.9507 4.80344C12.4185 4.27602 11.8612 3.72379 11.2489 3.22489C10.8681 2.91451 10.4586 2.62224 10.0245 2.38001C8.63697 1.60574 6.92915 2.12156 5.80646 3.24712C3.64836 5.41077 4.35455 7.14134 5.04231 8.69587C4.21472 8.80151 3.3366 9.39881 2.54883 10.3665C3.09508 10.079 3.66245 9.86572 4.21354 9.71071C5.06672 9.47072 5.89278 9.36672 6.56255 9.34451C5.65175 8.42394 5.23914 7.32422 5.22234 6.28682C5.1948 4.58736 6.2593 2.93437 8.0581 2.73572C8.96691 2.63536 9.75842 3.06376 10.5938 3.68032C11.001 3.98076 11.4419 4.34454 11.9302 4.74739L11.995 4.80092Z" fill="white" fill-opacity="0.8"/>
<path d="M4.44683 10.337C3.89639 10.4918 3.33659 10.7077 2.80757 11.0018C1.86459 11.5259 1.22396 12.4502 0.856867 13.4661C0.774448 13.6942 0.69683 13.9286 0.624512 14.1688C1.2307 13.3346 2.18565 12.6107 3.59071 12.1248C5.83168 11.3497 7.00336 10.6698 7.66358 10.2089C7.5647 10.1484 7.46908 10.0862 7.3767 10.0225C6.77137 9.96039 5.64519 9.99989 4.44683 10.337Z" fill="white" fill-opacity="0.8"/>
<path d="M16.2707 12.2112L15.0334 15.9248C15.375 14.8815 15.2627 13.8742 15.1155 13.1766C14.6084 13.2212 14.2383 13.1878 13.8895 13.1104C12.9694 12.9062 12.3557 12.1978 11.7714 11.5233C11.6845 11.423 11.5982 11.3234 11.5117 11.2263C11.3929 11.0931 11.2537 10.9548 11.0879 10.8031C11.3549 10.8451 11.6161 10.8835 11.8723 10.9212C13.4566 11.1541 14.8512 11.3591 16.2707 12.2112Z" fill="white" fill-opacity="0.8"/>
<path d="M15.0336 15.9248C15.029 15.9388 15.0243 15.9529 15.0195 15.967L15.0336 15.9248Z" fill="white" fill-opacity="0.8"/>
<path d="M19.8106 3.71781C20.6398 2.51263 21.8 1.1948 23.3579 0.104126C23.6977 0.150441 24.0422 0.21348 24.3885 0.295738C23.2005 0.903296 22.227 1.82063 21.3878 2.75893C20.9329 3.26768 20.5054 3.79693 20.103 4.29516C19.9323 4.50643 19.7662 4.71226 19.6043 4.90843C19.1936 5.4064 18.8111 5.84261 18.4385 6.18436C18.7023 5.56485 19.1466 4.68296 19.8106 3.71781Z" fill="white" fill-opacity="0.8"/>
<path d="M21.9852 3.16289C22.9691 2.06292 24.0613 1.08939 25.3911 0.588623C25.8314 0.742376 26.2712 0.930733 26.7057 1.15875C25.5202 1.38238 24.4944 2.02097 23.6062 2.74479C22.9651 3.26721 22.3684 3.85837 21.828 4.39392C21.6214 4.59851 21.4232 4.79509 21.2337 4.97651C20.8842 5.31114 20.565 5.59517 20.2676 5.80587C20.2518 5.81702 20.2363 5.82791 20.2209 5.83854C20.0371 5.86599 19.846 5.90772 19.645 5.96411C19.837 5.74999 20.0281 5.52389 20.2194 5.29192C20.39 5.08496 20.5612 4.87304 20.7345 4.65832C21.1324 4.16577 21.5419 3.65851 21.9852 3.16289Z" fill="white" fill-opacity="0.8"/>
<path d="M20.6487 26.4922C22.4446 29.1812 21.8044 31.688 20.7431 34.1137C20.4971 34.6762 20.2262 35.2392 19.9567 35.7992L19.8619 35.9964C19.5605 36.6237 19.2639 37.2482 19.0016 37.8784C18.7087 38.5822 18.4608 39.2872 18.2993 40C18.7523 39.2307 19.2581 38.5674 19.8045 37.981C20.0191 37.5617 20.2633 37.1385 20.5206 36.7144C20.7781 36.2897 21.0487 35.8639 21.3207 35.436C21.887 34.5447 22.4594 33.6442 22.932 32.7252C23.6277 31.3725 24.0712 30.0422 23.9326 28.7589C23.811 27.6319 23.2362 26.5067 21.9045 25.4119C21.6548 25.8644 21.2102 26.224 20.6487 26.4922Z" fill="white" fill-opacity="0.8"/>
<path d="M23.3525 22.5116C24.6646 23.6793 26.1304 25.2683 26.713 27.5156C27.1435 29.176 27.0855 31.1688 26.1693 33.584C27.0994 33.0355 28.0299 32.4471 28.9306 31.7441C29.1891 31.0415 29.3134 30.3861 29.3345 29.7735C29.3877 28.2286 28.7869 26.9121 27.9394 25.7443C27.2703 24.8223 26.463 24.0116 25.7077 23.2528C25.4979 23.0423 25.2919 22.8353 25.0944 22.6315C24.6776 22.2016 24.2947 21.7813 24.0041 21.3691L23.9593 21.37C23.8444 21.6771 23.7005 21.9698 23.5309 22.2435C23.4713 22.3393 23.4114 22.4288 23.3525 22.5116Z" fill="white" fill-opacity="0.8"/>
<path d="M24.5934 20.9435C24.4146 20.6775 24.2955 20.4351 24.2376 20.2103C24.2729 19.8881 24.2744 19.563 24.2419 19.2368C24.2147 18.9643 24.1727 18.6138 24.1475 18.408L24.368 18.2413C24.4208 18.2013 24.4725 18.1613 24.5234 18.121C24.5423 18.1796 24.5636 18.2396 24.5876 18.301C24.7265 18.6585 24.9562 19.0831 25.2995 19.5665C25.9861 20.5333 27.137 21.7503 28.9612 23.1561C31.1471 24.8406 31.8696 26.5183 31.8437 28.0056C31.838 28.3241 31.7981 28.6363 31.7294 28.9406C31.1677 29.6728 30.5745 30.3081 29.9608 30.8726C30.0371 30.503 30.0795 30.1433 30.0917 29.7931C30.1507 28.0773 29.4792 26.632 28.58 25.3931C27.8772 24.4246 27.0199 23.5641 26.2601 22.8015C26.056 22.5965 25.8587 22.3985 25.6736 22.2075C25.2298 21.7498 24.8561 21.334 24.5934 20.9435Z" fill="white" fill-opacity="0.8"/>
<path d="M25.1729 17.552C25.1767 17.6709 25.2108 17.8494 25.3044 18.0905C25.4212 18.3914 25.6236 18.7705 25.9433 19.2207C26.5826 20.1209 27.6804 21.2899 29.463 22.6637C31.6455 24.3457 32.5226 26.0827 32.596 27.7042C32.8659 27.285 33.1134 26.8647 33.3398 26.444C33.3287 26.1684 33.2972 25.8942 33.245 25.622C32.9306 23.9842 31.8498 22.376 29.7138 20.9172C27.8865 19.669 26.846 18.4999 26.2432 17.6109C26.0533 17.3309 25.9076 17.0799 25.7948 16.8644C25.6128 17.0949 25.4064 17.3245 25.1729 17.552Z" fill="white" fill-opacity="0.8"/>
<path d="M26.3324 16.2814C26.3124 16.2376 26.2943 16.1967 26.2778 16.1587C26.4946 15.7881 26.6551 15.4191 26.7707 15.0579C27.0122 15.3646 27.3349 15.7291 27.7474 16.1402C28.5889 16.9789 29.8191 18.0262 31.5374 19.1942C33.4982 20.527 34.2893 22.2577 34.5238 23.7185C34.3548 24.2227 34.1584 24.7297 33.9325 25.2375C33.5171 23.5109 32.325 21.8635 30.1819 20.3997C28.4279 19.2017 27.4503 18.0945 26.8956 17.2767C26.6182 16.8675 26.4447 16.5279 26.3324 16.2814Z" fill="white" fill-opacity="0.8"/>
<path d="M26.9839 14.0799C27.1231 14.3533 27.5288 14.9214 28.3176 15.7075C29.1248 16.5121 30.3194 17.531 32.0034 18.6756C33.5818 19.7486 34.4682 21.055 34.9286 22.3085C35.2042 21.1601 35.3441 20.0348 35.3726 18.954C34.9557 18.0261 33.7609 16.596 31.1618 15.5358C29.4593 14.8413 28.2124 14.0187 27.3585 13.2852C27.2334 13.1776 27.116 13.0714 27.0065 12.9674C27.0336 13.3147 27.0316 13.6886 26.9839 14.0799Z" fill="white" fill-opacity="0.8"/>
<path d="M27.8911 12.8171C27.2722 12.2855 26.9008 11.8261 26.7231 11.5366C26.6466 11.2958 26.556 11.0559 26.4517 10.8178C26.6534 10.7418 26.846 10.6604 27.0298 10.5741C27.7122 11.0784 28.9535 11.8546 31.5026 12.7362C32.9117 13.2235 33.7756 13.9578 34.2746 14.7679C34.7191 15.4894 34.8839 16.2883 34.8636 17.0557C34.1028 16.315 33.0048 15.5605 31.4838 14.94C29.8609 14.278 28.6847 13.499 27.8911 12.8171Z" fill="white" fill-opacity="0.8"/>
<path d="M26.1548 10.2123C28.4562 9.344 29.3704 7.72222 29.3937 6.2776C29.4186 4.7431 28.4694 3.52666 27.2195 3.38863C26.6604 3.3269 26.0947 3.57276 25.2692 4.18206C24.8785 4.47038 24.4515 4.82263 23.9558 5.23163L23.8991 5.27836C23.4912 5.6149 23.0406 5.98566 22.5361 6.3804C22.7545 6.52276 22.9669 6.68338 23.18 6.85248C23.6947 6.11418 25.0724 5.3609 27.7761 5.51655C27.9847 5.52856 28.1425 5.6853 28.1287 5.86665C28.1149 6.04798 27.9346 6.18525 27.726 6.17323C24.9217 6.0118 23.9804 6.8783 23.7547 7.32218C23.7891 7.35163 23.8234 7.3812 23.8573 7.41086C24.4716 7.2523 25.219 7.21996 25.9234 7.25488C26.714 7.29406 27.4983 7.42056 28.0582 7.58281C28.2566 7.64028 28.3637 7.82665 28.2975 7.99905C28.2315 8.17146 28.0171 8.26465 27.8188 8.20717C27.3336 8.06657 26.617 7.94845 25.8803 7.91193C25.3717 7.88671 24.8755 7.90156 24.4512 7.96583C25.1566 8.67203 25.7298 9.42948 26.1548 10.2123Z" fill="white" fill-opacity="0.8"/>
<path d="M23.3777 4.80092C22.925 5.17444 22.4268 5.58424 21.8634 6.02046C21.7832 5.98766 21.7016 5.95809 21.6182 5.93212C21.5198 5.90151 21.4206 5.87609 21.3203 5.85592C21.4772 5.71812 21.6352 5.57107 21.7942 5.41881C22.0008 5.22097 22.2094 5.01416 22.4221 4.80344C22.9544 4.27602 23.5116 3.72379 24.1239 3.22489C24.5048 2.91451 24.9142 2.62224 25.3483 2.38001C26.7359 1.60574 28.4437 2.12156 29.5663 3.24712C31.7245 5.41077 31.0182 7.14134 30.3304 8.69587C31.1581 8.80151 32.0362 9.39881 32.824 10.3665C32.2777 10.079 31.7104 9.86572 31.1593 9.71071C30.3062 9.47072 29.4801 9.36672 28.8103 9.34451C29.721 8.42394 30.1337 7.32422 30.1505 6.28682C30.1781 4.58736 29.1135 2.93437 27.3148 2.73572C26.4059 2.63536 25.6145 3.06376 24.779 3.68032C24.3719 3.98076 23.931 4.34454 23.4426 4.74739L23.3777 4.80092Z" fill="white" fill-opacity="0.8"/>
<path d="M30.9263 10.337C31.4767 10.4918 32.0364 10.7077 32.5655 11.0017C33.5085 11.5259 34.149 12.4502 34.5161 13.4662C34.5986 13.6943 34.6761 13.9286 34.7485 14.1688C34.1424 13.3346 33.1874 12.6107 31.7824 12.1248C29.5413 11.3497 28.3697 10.6698 27.7095 10.2089C27.8083 10.1484 27.9039 10.0862 27.9964 10.0225C28.6017 9.96039 29.7278 9.99989 30.9263 10.337Z" fill="white" fill-opacity="0.8"/>
<path d="M19.1021 12.2112L20.3393 15.9248C20.3439 15.9388 20.3486 15.9529 20.3532 15.9669L20.3393 15.9248C19.9976 14.8815 20.1101 13.8742 20.2571 13.1766C20.7643 13.2212 21.1344 13.1878 21.4832 13.1104C22.4033 12.9062 23.0169 12.1978 23.6013 11.5233C23.6883 11.423 23.7744 11.3234 23.8609 11.2263C23.9797 11.0931 24.1191 10.9548 24.2848 10.8031C24.0178 10.8451 23.7566 10.8835 23.5003 10.9212C21.9161 11.1541 20.5214 11.3591 19.1021 12.2112Z" fill="white" fill-opacity="0.8"/>
<path fill-rule="evenodd" clip-rule="evenodd" d="M53.4661 23.088C53.0802 22.1285 52.8872 21.0758 52.8872 19.93C52.8872 18.7841 53.0802 17.7388 53.4661 16.7935C53.852 15.8339 54.3952 15.0105 55.0955 14.3229C55.8102 13.6212 56.6464 13.0842 57.604 12.7117C58.5761 12.325 59.648 12.1317 60.82 12.1317C61.9921 12.1317 63.057 12.325 64.0148 12.7117C64.9867 13.0842 65.8229 13.6212 66.5231 14.3229C67.2379 15.0105 67.7881 15.8339 68.174 16.7935C68.5601 17.7388 68.7531 18.7841 68.7531 19.93C68.7531 21.0758 68.5601 22.1285 68.174 23.088C67.7881 24.0331 67.2379 24.8566 66.5231 25.5585C65.8229 26.246 64.9867 26.783 64.0148 27.1696C63.057 27.5421 61.9921 27.7283 60.82 27.7283C59.648 27.7283 58.5761 27.5421 57.604 27.1696C56.6464 26.783 55.8102 26.246 55.0955 25.5585C54.3952 24.8566 53.852 24.0331 53.4661 23.088ZM65.7943 19.93C65.7943 18.9275 65.5799 18.0538 65.151 17.3091C64.7365 16.55 64.1575 15.9556 63.4143 15.5259C62.6711 15.0964 61.8063 14.8815 60.82 14.8815C59.8481 14.8815 58.9834 15.0964 58.2258 15.5259C57.4824 15.9556 56.8964 16.55 56.4678 17.3091C56.0533 18.0538 55.846 18.9275 55.846 19.93C55.846 20.9181 56.0533 21.7918 56.4678 22.551C56.8964 23.31 57.4824 23.9043 58.2258 24.334C58.9834 24.7636 59.8481 24.9785 60.82 24.9785C61.8063 24.9785 62.6711 24.7636 63.4143 24.334C64.1575 23.9043 64.7365 23.31 65.151 22.551C65.5799 21.7918 65.7943 20.9181 65.7943 19.93Z" fill="white" fill-opacity="0.8"/>
<path d="M82.6929 16.192H82.8644V12.411C82.6502 12.4969 82.4072 12.5399 82.1355 12.5399C81.8925 12.5399 81.4995 12.4755 80.9562 12.3466C80.4274 12.2033 79.7842 12.1317 79.0267 12.1317C77.34 12.1317 75.8606 12.4611 74.5885 13.1199C73.3307 13.7644 72.3516 14.6739 71.6513 15.8482C70.9509 17.0083 70.6006 18.3688 70.6006 19.93C70.6006 21.0615 70.7935 22.1068 71.1794 23.0665C71.5653 24.0116 72.1157 24.8351 72.8305 25.537C73.5451 26.2388 74.3812 26.783 75.339 27.1696C76.3109 27.5421 77.3758 27.7283 78.5335 27.7283C80.0487 27.7283 81.3564 27.4131 82.4571 26.783C83.5577 26.1528 84.401 25.2793 84.987 24.1621C85.5873 23.045 85.8876 21.7561 85.8876 20.2951C85.8876 20.1838 85.8929 20.0778 85.9037 19.9773C85.9207 19.8193 85.9511 19.6746 85.9947 19.5433C86.0805 19.3285 86.1948 19.1495 86.3379 19.0063V18.8345H79.4555C79.3925 18.8345 79.3291 18.8338 79.2654 18.8326C79.2067 18.8316 79.1478 18.8301 79.0886 18.828C78.9961 18.8248 78.9031 18.8205 78.8096 18.8148C78.7042 18.8086 78.5977 18.8008 78.4908 18.7913C78.1619 18.7626 77.8688 18.7198 77.6117 18.6625V22.1643H77.7832C77.9547 21.9206 78.2404 21.7273 78.6408 21.5841C79.041 21.4266 79.5626 21.3478 80.2059 21.3478H82.8418C82.824 22.0211 82.6385 22.6298 82.2856 23.174C81.914 23.7325 81.3995 24.1765 80.7418 24.5058C80.0987 24.8208 79.3625 24.9785 78.5335 24.9785C77.5616 24.9785 76.6968 24.7636 75.9393 24.334C75.196 23.9043 74.61 23.31 74.1813 22.551C73.7666 21.7918 73.5594 20.9181 73.5594 19.93C73.5594 18.9131 73.7881 18.0251 74.2455 17.2661C74.7028 16.5071 75.3462 15.9199 76.1752 15.5046C77.0183 15.0892 77.9976 14.8815 79.1125 14.8815C79.5127 14.8815 79.8843 14.9102 80.2273 14.9675C80.5846 15.0105 80.9135 15.0892 81.2137 15.2038C81.5281 15.3041 81.814 15.4544 82.0712 15.6549C82.3428 15.8554 82.55 16.0344 82.6929 16.192Z" fill="white" fill-opacity="0.8"/>
<path fill-rule="evenodd" clip-rule="evenodd" d="M88.1809 23.088C87.795 22.1285 87.6021 21.0758 87.6021 19.93C87.6021 18.7841 87.795 17.7388 88.1809 16.7935C88.5668 15.8339 89.1099 15.0105 89.8103 14.3229C90.5251 13.6212 91.3613 13.0842 92.3189 12.7117C93.2909 12.325 94.3628 12.1317 95.5348 12.1317C96.707 12.1317 97.7719 12.325 98.7295 12.7117C99.7014 13.0842 100.538 13.6212 101.238 14.3229C101.953 15.0105 102.503 15.8339 102.889 16.7935C103.275 17.7388 103.468 18.7841 103.468 19.93C103.468 21.0758 103.275 22.1285 102.889 23.088C102.503 24.0331 101.953 24.8566 101.238 25.5585C100.538 26.246 99.7014 26.783 98.7295 27.1696C97.7719 27.5421 96.707 27.7283 95.5348 27.7283C94.3628 27.7283 93.2909 27.5421 92.3189 27.1696C91.3613 26.783 90.5251 26.246 89.8103 25.5585C89.1099 24.8566 88.5668 24.0331 88.1809 23.088ZM100.509 19.93C100.509 18.9275 100.295 18.0538 99.8657 17.3091C99.4514 16.55 98.8724 15.9556 98.1292 15.5259C97.386 15.0964 96.5212 14.8815 95.5348 14.8815C94.5629 14.8815 93.6983 15.0964 92.9406 15.5259C92.1973 15.9556 91.6113 16.55 91.1826 17.3091C90.7681 18.0538 90.5608 18.9275 90.5608 19.93C90.5608 20.9181 90.7681 21.7918 91.1826 22.551C91.6113 23.31 92.1973 23.9043 92.9406 24.334C93.6983 24.7636 94.5629 24.9785 95.5348 24.9785C96.5212 24.9785 97.386 24.7636 98.1292 24.334C98.8724 23.9043 99.4514 23.31 99.8657 22.551C100.295 21.7918 100.509 20.9181 100.509 19.93Z" fill="white" fill-opacity="0.8"/>
<path d="M127.804 14.5378C127.275 15.2825 126.753 16.2922 126.239 17.5668L124.588 21.6271C124.259 22.4435 123.952 23.0665 123.666 23.4961C123.394 23.9258 123.123 24.2195 122.851 24.377C122.594 24.5345 122.308 24.6133 121.994 24.6133C121.751 24.6133 121.522 24.5703 121.308 24.4843C121.093 24.3841 120.907 24.248 120.75 24.0761H120.579V27.2986C120.6 27.3045 120.621 27.3101 120.643 27.3155C120.678 27.3241 120.714 27.3325 120.751 27.3405C120.794 27.3496 120.838 27.3583 120.884 27.3666C120.963 27.3811 121.047 27.3941 121.136 27.406C121.365 27.4346 121.615 27.449 121.886 27.449C122.558 27.449 123.159 27.3558 123.687 27.1696C124.231 26.9835 124.717 26.69 125.145 26.289C125.574 25.8736 125.981 25.3436 126.367 24.6991C126.753 24.0546 127.132 23.2741 127.504 22.3576L129.155 18.2973C129.483 17.481 129.791 16.858 130.077 16.4283C130.377 15.9843 130.655 15.6836 130.913 15.5261C130.93 15.5143 130.948 15.5028 130.965 15.4918L131.004 15.4686L131.032 15.4523L131.052 15.4411L131.08 15.4256C131.095 15.4182 131.109 15.411 131.123 15.4041C131.152 15.3894 131.182 15.376 131.211 15.3638C131.365 15.3001 131.515 15.2682 131.663 15.2682C131.892 15.2682 132.099 15.3184 132.285 15.4186C132.471 15.5046 132.614 15.6048 132.714 15.7194H132.885V12.3466C132.8 12.3752 132.714 12.3966 132.628 12.411C132.596 12.4164 132.563 12.4208 132.531 12.4243C132.512 12.4263 132.493 12.4279 132.473 12.4291C132.459 12.4301 132.445 12.4309 132.43 12.4314C132.41 12.4321 132.391 12.4325 132.371 12.4325H132.092C132.047 12.4249 131.987 12.4195 131.911 12.4159C131.841 12.4126 131.759 12.411 131.663 12.411C130.877 12.411 130.17 12.5757 129.541 12.9051C128.926 13.2345 128.347 13.7788 127.804 14.5378Z" fill="white" fill-opacity="0.8"/>
<path d="M134.283 15.0535C134.283 14.409 134.226 13.9006 134.111 13.5282C133.997 13.1416 133.833 12.8623 133.618 12.6904V12.5186H137.799V12.6904C137.585 12.8623 137.42 13.1416 137.306 13.5282C137.192 13.9006 137.134 14.409 137.134 15.0535V21.9495C137.134 22.9377 137.349 23.6895 137.778 24.2052C138.206 24.7208 138.835 24.9787 139.664 24.9787C140.494 24.9787 141.122 24.7208 141.551 24.2052C141.98 23.6895 142.194 22.9377 142.194 21.9495V15.0535C142.194 14.409 142.137 13.9006 142.023 13.5282C141.909 13.1416 141.744 12.8623 141.53 12.6904V12.5186H145.71V12.6904C145.496 12.8623 145.332 13.1416 145.217 13.5282C145.103 13.9006 145.046 14.409 145.046 15.0535V22.0783C145.046 23.2957 144.839 24.327 144.424 25.172C144.024 26.0168 143.424 26.6542 142.623 27.0838C141.823 27.5137 140.836 27.7285 139.664 27.7285C138.492 27.7285 137.506 27.5137 136.706 27.0838C135.905 26.6542 135.298 26.0168 134.883 25.172C134.483 24.327 134.283 23.2957 134.283 22.0783V15.0535Z" fill="white" fill-opacity="0.8"/>
<path d="M147.917 15.2254C147.917 14.581 147.852 14.0438 147.724 13.6142C147.595 13.1845 147.409 12.8765 147.166 12.6904V12.5186H150.982V12.6475C150.768 12.9196 150.682 13.2347 150.725 13.5927C150.768 13.9508 150.961 14.2874 151.304 14.6023L155.125 18.0397L158.68 14.7313C159.065 14.3733 159.287 14.008 159.344 13.6357C159.416 13.249 159.351 12.9196 159.151 12.6475V12.5186H162.967V12.6904C162.739 12.8765 162.553 13.1845 162.41 13.6142C162.281 14.0438 162.217 14.581 162.217 15.2254V24.8067C162.217 25.4512 162.274 25.9668 162.389 26.3535C162.503 26.7258 162.667 26.998 162.882 27.1698V27.3417H158.701V27.1698C158.915 26.998 159.08 26.7258 159.194 26.3535C159.308 25.9668 159.365 25.4512 159.365 24.8067V17.6047L155.12 21.4555H155.035L150.768 17.6482V24.8067C150.768 25.4512 150.825 25.9668 150.94 26.3535C151.054 26.7258 151.218 26.998 151.433 27.1698V27.3417H147.252V27.1698C147.466 26.998 147.63 26.7258 147.745 26.3535C147.859 25.9668 147.917 25.4512 147.917 24.8067V15.2254Z" fill="white" fill-opacity="0.8"/>
<path fill-rule="evenodd" clip-rule="evenodd" d="M114.608 24.8067C114.608 25.4655 114.673 25.9883 114.801 26.375C114.944 26.7473 115.137 27.0123 115.38 27.1698V27.3417H111.092V27.1698C111.307 26.998 111.471 26.7258 111.585 26.3535C111.7 25.9668 111.757 25.4512 111.757 24.8067V15.0535C111.757 14.409 111.693 13.9006 111.564 13.5282C111.435 13.1416 111.257 12.8623 111.028 12.6904V12.5186H116.366C118.196 12.5186 119.625 12.9911 120.655 13.9364C121.698 14.8817 122.22 16.185 122.22 17.8463C122.22 18.949 121.984 19.9015 121.512 20.7035C121.04 21.4912 120.369 22.0998 119.497 22.5295C118.625 22.9592 117.581 23.174 116.366 23.174H114.608V24.8067ZM114.608 15.1395V20.5532H116.238C117.224 20.5532 117.975 20.324 118.489 19.8657C119.004 19.393 119.261 18.72 119.261 17.8463C119.261 16.9583 119.004 16.2852 118.489 15.8269C117.975 15.3686 117.224 15.1395 116.238 15.1395H114.608Z" fill="white" fill-opacity="0.8"/>
<path d="M105.723 13.5282C105.837 13.9006 105.894 14.409 105.894 15.0535V24.8067C105.894 25.0798 105.884 25.33 105.863 25.5568C105.835 25.8652 105.789 26.1307 105.723 26.3535C105.689 26.4638 105.65 26.5655 105.608 26.6582C105.568 26.7452 105.524 26.8242 105.476 26.8955C105.403 27.0052 105.321 27.0967 105.229 27.1698V27.3417H109.41V27.1698C109.196 26.998 109.031 26.7258 108.917 26.3535C108.803 25.9668 108.746 25.4512 108.746 24.8067V15.0535C108.746 14.409 108.803 13.9006 108.917 13.5282C109.031 13.1416 109.196 12.8623 109.41 12.6904V12.5186H105.229V12.6904C105.444 12.8623 105.608 13.1416 105.723 13.5282Z" fill="white" fill-opacity="0.8"/>
<path d="M45.2832 24.6778H49.6354C50.2788 24.6778 50.7933 24.6205 51.1792 24.5058C51.5651 24.3772 51.8438 24.198 52.0153 23.969H52.1868V27.5137C51.9297 27.4418 51.6368 27.3918 51.3079 27.3632C50.9934 27.3488 50.6718 27.3417 50.343 27.3417H41.7026V27.1698C41.9313 26.998 42.11 26.7258 42.2387 26.3535C42.3672 25.9668 42.4317 25.4512 42.4317 24.8067V15.0535C42.4317 14.409 42.3743 13.9006 42.26 13.5282C42.1458 13.1416 41.9812 12.8623 41.7668 12.6904V12.5186H46.055V12.6904C45.9485 12.7594 45.8517 12.849 45.7644 12.9592C45.6526 13.1007 45.5565 13.2759 45.4761 13.4852C45.3474 13.8577 45.2832 14.3805 45.2832 15.0535V24.6778Z" fill="white" fill-opacity="0.8"/>
<path fill-rule="evenodd" clip-rule="evenodd" d="M154.115 34.5835C154.115 35.3035 154.239 35.8568 154.489 36.2438C154.738 36.6308 155.093 36.8243 155.554 36.8243C156.023 36.8243 156.38 36.6308 156.625 36.2438C156.874 35.8568 156.999 35.3035 156.999 34.5835C156.999 33.8637 156.874 33.3102 156.625 32.9232C156.38 32.5362 156.023 32.3427 155.554 32.3427C155.093 32.3427 154.738 32.5362 154.489 32.9232C154.239 33.3102 154.115 33.8637 154.115 34.5835ZM156.457 34.5835C156.457 35.1537 156.38 35.5863 156.227 35.8818C156.077 36.1773 155.853 36.325 155.554 36.325C155.259 36.325 155.035 36.1773 154.881 35.8818C154.727 35.5863 154.651 35.1537 154.651 34.5835C154.651 34.0135 154.727 33.5807 154.881 33.2852C155.035 32.9897 155.259 32.842 155.554 32.842C155.853 32.842 156.077 32.9897 156.227 33.2852C156.38 33.5807 156.457 34.0135 156.457 34.5835Z" fill="white" fill-opacity="0.8"/>
<path d="M152.875 36.2438H151.697L152.427 35.2515C152.697 34.8852 152.89 34.569 153.006 34.3027C153.126 34.0363 153.187 33.7867 153.187 33.5537C153.187 33.1873 153.062 32.8982 152.813 32.686C152.564 32.4695 152.225 32.3613 151.797 32.3613C151.644 32.3613 151.515 32.3718 151.411 32.3925C151.307 32.4133 151.222 32.4342 151.156 32.455C151.094 32.4717 151.04 32.48 150.994 32.48H150.925C150.904 32.4758 150.873 32.4717 150.832 32.4675V33.2477H150.875C150.904 33.202 150.938 33.1603 150.975 33.1228C151.017 33.0855 151.064 33.05 151.118 33.0168C151.185 32.9752 151.272 32.9377 151.38 32.9045C151.488 32.8712 151.604 32.8545 151.729 32.8545C152.007 32.8545 152.227 32.9232 152.389 33.0605C152.551 33.1978 152.632 33.385 152.632 33.6223C152.632 33.7472 152.603 33.8885 152.545 34.0467C152.487 34.2007 152.393 34.3817 152.265 34.5898C152.14 34.7978 151.976 35.0413 151.773 35.3202L150.77 36.6933V36.737H153.056C153.135 36.737 153.212 36.7392 153.286 36.7433C153.361 36.7517 153.428 36.764 153.486 36.7807V35.9942H153.436C153.394 36.0733 153.328 36.1357 153.236 36.1815C153.149 36.2232 153.029 36.2438 152.875 36.2438Z" fill="white" fill-opacity="0.8"/>
<path d="M136.97 36.2315H135.425V34.5524H136.222C136.359 34.5524 136.461 34.5669 136.527 34.596C136.594 34.621 136.644 34.6585 136.677 34.7084H136.72V33.8969H136.677C136.644 33.9427 136.594 33.9802 136.527 34.0094C136.461 34.0384 136.359 34.053 136.222 34.053H135.425V32.9357H136.932C137.086 32.9357 137.206 32.9565 137.294 32.998C137.385 33.0397 137.451 33.1022 137.493 33.1854H137.543V32.3864C137.485 32.3989 137.418 32.4092 137.343 32.4175C137.269 32.4259 137.192 32.43 137.113 32.43H134.671V32.48C134.737 32.5175 134.789 32.582 134.827 32.6735C134.868 32.765 134.889 32.894 134.889 33.0605V36.1065C134.889 36.273 134.868 36.402 134.827 36.4937C134.789 36.5852 134.737 36.6497 134.671 36.6872V36.737H137.15C137.229 36.737 137.306 36.7392 137.381 36.7434C137.46 36.7517 137.526 36.764 137.58 36.7807V35.9817H137.537C137.495 36.0609 137.429 36.1232 137.337 36.169C137.246 36.2107 137.123 36.2315 136.97 36.2315Z" fill="white" fill-opacity="0.8"/>
<path d="M139.978 33.1292H139.934C139.905 33.0917 139.868 33.0584 139.822 33.0294C139.78 32.996 139.733 32.969 139.679 32.9482C139.641 32.9357 139.598 32.9252 139.548 32.9168C139.498 32.9045 139.442 32.8982 139.38 32.8982C139.168 32.8982 138.997 32.9524 138.869 33.0605C138.74 33.1687 138.676 33.306 138.676 33.4725C138.676 33.6015 138.711 33.7158 138.782 33.8158C138.852 33.9115 138.975 34.0177 139.149 34.1342L139.473 34.3464C139.656 34.467 139.805 34.5919 139.922 34.7209C140.042 34.8457 140.131 34.9789 140.189 35.1204C140.248 35.2619 140.277 35.4179 140.277 35.5885C140.277 35.938 140.15 36.2232 139.897 36.4437C139.647 36.66 139.29 36.7682 138.825 36.7682C138.705 36.7682 138.582 36.7598 138.458 36.7433C138.337 36.7308 138.237 36.7162 138.159 36.6995V36.0005H138.202L138.302 36.1004C138.335 36.1254 138.372 36.1482 138.414 36.169C138.464 36.1982 138.526 36.2232 138.601 36.2438C138.676 36.2647 138.759 36.2752 138.85 36.2752C139.112 36.2752 139.319 36.2127 139.473 36.0879C139.627 35.9589 139.704 35.7924 139.704 35.5885C139.704 35.4262 139.654 35.2827 139.554 35.1579C139.459 35.0289 139.296 34.8894 139.068 34.7395L138.75 34.5212C138.522 34.3714 138.356 34.2132 138.252 34.0467C138.152 33.8803 138.103 33.691 138.103 33.4787C138.103 33.1542 138.221 32.894 138.458 32.6985C138.699 32.4987 139.029 32.3989 139.448 32.3989C139.531 32.3989 139.6 32.403 139.654 32.4114C139.712 32.4155 139.762 32.4175 139.803 32.4175C139.849 32.4175 139.907 32.4072 139.978 32.3864V33.1292Z" fill="white" fill-opacity="0.8"/>
<path d="M141.112 32.9357H141.816V36.144C141.816 36.3022 141.797 36.4229 141.76 36.506C141.727 36.5894 141.677 36.6517 141.61 36.6934V36.737H142.557V36.6934C142.491 36.6517 142.439 36.5894 142.402 36.506C142.368 36.4229 142.352 36.3022 142.352 36.144V32.9357H143.056C143.209 32.9357 143.33 32.9565 143.417 32.998C143.508 33.0397 143.575 33.1022 143.616 33.1854H143.666V32.3864C143.608 32.3989 143.542 32.4092 143.467 32.4175C143.392 32.4259 143.315 32.43 143.236 32.43H140.931C140.857 32.43 140.78 32.4259 140.701 32.4175C140.626 32.4092 140.56 32.3989 140.501 32.3864V33.1854H140.551C140.593 33.1022 140.657 33.0397 140.744 32.998C140.836 32.9565 140.958 32.9357 141.112 32.9357Z" fill="white" fill-opacity="0.8"/>
<path fill-rule="evenodd" clip-rule="evenodd" d="M145.44 32.4299C145.943 32.4299 146.373 32.5153 146.73 32.6859C147.091 32.8564 147.367 33.1041 147.558 33.4288C147.754 33.7491 147.851 34.1341 147.851 34.5834C147.851 35.0329 147.754 35.4199 147.558 35.7444C147.367 36.0649 147.091 36.3104 146.73 36.4811C146.373 36.6516 145.943 36.7369 145.44 36.7369H144.088V36.6871C144.155 36.6496 144.207 36.5851 144.244 36.4936C144.286 36.4019 144.306 36.2729 144.306 36.1064V33.0604C144.306 32.8939 144.286 32.7649 144.244 32.6734C144.207 32.5819 144.155 32.5174 144.088 32.4799V32.4299H145.44ZM147.291 34.5834C147.291 34.2506 147.218 33.9613 147.072 33.7158C146.927 33.4661 146.721 33.2748 146.456 33.1416C146.194 33.0043 145.88 32.9356 145.515 32.9356H144.842V36.2314H145.515C145.88 36.2314 146.194 36.1648 146.456 36.0316C146.721 35.8943 146.927 35.7029 147.072 35.4573C147.218 35.2076 147.291 34.9164 147.291 34.5834Z" fill="white" fill-opacity="0.8"/>
<path d="M148.2 36.4125C148.2 36.5206 148.235 36.6121 148.305 36.6871C148.38 36.762 148.474 36.7995 148.586 36.7995C148.694 36.7995 148.783 36.762 148.854 36.6871C148.928 36.6121 148.966 36.5206 148.966 36.4125C148.966 36.3083 148.928 36.2189 148.854 36.1439C148.783 36.0691 148.694 36.0316 148.586 36.0316C148.474 36.0316 148.38 36.0691 148.305 36.1439C148.235 36.2189 148.2 36.3083 148.2 36.4125Z" fill="white" fill-opacity="0.8"/>
<path d="M159.101 36.144C159.101 36.3022 159.12 36.4229 159.157 36.506C159.199 36.5894 159.253 36.6517 159.319 36.6934V36.737H158.341V36.6934C158.412 36.6517 158.466 36.5894 158.503 36.506C158.545 36.4229 158.566 36.3022 158.566 36.144V33.1292L157.619 33.5849H157.569V33.0667L159.051 32.3864H159.101V36.144Z" fill="white" fill-opacity="0.8"/>
<path fill-rule="evenodd" clip-rule="evenodd" d="M161.921 34.9955C161.767 35.058 161.605 35.0892 161.435 35.0892C161.178 35.0892 160.947 35.0308 160.744 34.9143C160.54 34.7978 160.38 34.6377 160.264 34.4337C160.148 34.2298 160.089 33.9988 160.089 33.7408C160.089 33.4662 160.152 33.2248 160.276 33.0168C160.401 32.8045 160.571 32.6402 160.787 32.5237C161.003 32.403 161.252 32.3427 161.535 32.3427C161.813 32.3427 162.06 32.4008 162.276 32.5175C162.492 32.6298 162.66 32.7878 162.781 32.9918C162.905 33.1957 162.967 33.4308 162.967 33.6972C162.967 33.8803 162.936 34.0655 162.874 34.2527C162.812 34.4358 162.708 34.646 162.563 34.8832L161.435 36.737H160.837V36.6933L161.921 34.9955ZM162.438 33.7222C162.438 33.8968 162.398 34.053 162.32 34.1903C162.241 34.3277 162.133 34.4358 161.996 34.5148C161.859 34.5898 161.701 34.6272 161.522 34.6272C161.344 34.6272 161.188 34.5898 161.055 34.5148C160.922 34.44 160.816 34.336 160.737 34.2028C160.663 34.0655 160.625 33.9115 160.625 33.7408C160.625 33.562 160.663 33.4058 160.737 33.2727C160.816 33.1395 160.924 33.0355 161.061 32.9607C161.198 32.8815 161.356 32.842 161.535 32.842C161.709 32.842 161.863 32.8795 161.996 32.9543C162.133 33.0293 162.241 33.1333 162.32 33.2665C162.398 33.3955 162.438 33.5473 162.438 33.7222Z" fill="white" fill-opacity="0.8"/>
<path d="M166.907 11.2379C166.907 11.9646 166.319 12.5537 165.594 12.5537C164.869 12.5537 164.281 11.9646 164.281 11.2379C164.281 10.5112 164.869 9.92212 165.594 9.92212C166.319 9.92212 166.907 10.5112 166.907 11.2379Z" fill="white" fill-opacity="0.8"/>
</g>
<defs>
<clipPath id="clip0_310_83">
<rect width="168" height="40" fill="white"/>
</clipPath>
</defs>
</svg>
